<?xml version="1.0" encoding="utf-8"?>
<!-- Generator: Adobe Illustrator 27.8.0, SVG Export Plug-In . SVG Version: 6.00 Build 0)  -->
<svg version="1.1" id="Grupo_108147" xmlns="http://www.w3.org/2000/svg" xmlns:xlink="http://www.w3.org/1999/xlink" x="0px"
	 y="0px" viewBox="0 0 34 34" style="enable-background:new 0 0 34 34;" xml:space="preserve">
<style type="text/css">
	.st0{fill:#FFFFFF;}
	.st1{fill:#029581;stroke:#029581;stroke-width:1.4173;stroke-miterlimit:10;}
</style>
<path class="st0" d="M17,0.5L17,0.5c9.1,0,16.5,7.4,16.5,16.5l0,0c0,9.1-7.4,16.5-16.5,16.5l0,0C7.9,33.5,0.5,26.1,0.5,17l0,0
	C0.5,7.9,7.9,0.5,17,0.5z"/>
<path id="Trazado_22147" class="st1" d="M20.4,11.8c0,0.1,0,0.2-0.1,0.3l-5.1,5.1l5.1,5.1c0.2,0.2,0.2,0.4,0,0.6l0,0l-0.6,0.6
	c-0.2,0.2-0.4,0.2-0.6,0l0,0l-6-6c-0.2-0.2-0.2-0.4,0-0.6l0,0l6-6c0.2-0.2,0.4-0.2,0.6,0l0,0l0.6,0.6C20.3,11.6,20.4,11.7,20.4,11.8
	L20.4,11.8z"/>
</svg>
