<?xml version="1.0" encoding="utf-8"?>
<!-- Generator: Adobe Illustrator 27.8.0, SVG Export Plug-In . SVG Version: 6.00 Build 0)  -->
<svg version="1.1" id="Grupo_108147" xmlns="http://www.w3.org/2000/svg" xmlns:xlink="http://www.w3.org/1999/xlink" x="0px"
	 y="0px" viewBox="0 0 34 34" style="enable-background:new 0 0 34 34;" xml:space="preserve">
<style type="text/css">
	.st1{fill:#029581;stroke:#029581;stroke-width:1.4173;stroke-miterlimit:10;}
</style>
<g>
	<path class="st1" d="M23.3,22.7l-0.6,0.6c-0.2,0.2-0.4,0.2-0.6,0L17,18.2l-5.1,5.1c-0.2,0.2-0.4,0.2-0.6,0l-0.6-0.6
		c-0.1-0.1-0.1-0.2-0.1-0.3c0-0.1,0-0.2,0.1-0.3l5.1-5.1l-5.1-5.1c-0.2-0.2-0.2-0.4,0-0.6l0.6-0.6c0.2-0.2,0.4-0.2,0.6,0l5.1,5.1
		l5.1-5.1c0.2-0.2,0.4-0.2,0.6,0l0.6,0.6c0.1,0.1,0.1,0.2,0.1,0.3c0,0.1,0,0.2-0.1,0.3L18.2,17l5.1,5.1
		C23.5,22.3,23.5,22.5,23.3,22.7z"/>
</g>
</svg>
