        <svg  data-name="Grupo 108109" xmlns="http://www.w3.org/2000/svg" width="32" height="32" viewBox="0 0 32 32">
            <g data-name="Enmascarar grupo 719" transform="translate(10 22) rotate(-90)" clip-path="url(#clip-path)">
                <g id="angle-right" transform="translate(0 9.998) rotate(-90)">
                    <path id="Trazado_22147" data-name="Trazado 22147" d="M7,11a.38.38,0,0,0-.12-.277L2.152,6,6.878,1.274a.379.379,0,0,0,0-.553l-.6-.6a.379.379,0,0,0-.553,0l-5.6,5.6a.379.379,0,0,0,0,.553l5.6,5.6a.379.379,0,0,0,.553,0l.6-.6A.38.38,0,0,0,7,11Z" fill="#111110" stroke="#000" stroke-width="1"/>
                </g>
            </g>
        </svg>