<svg id="Grupo_112059" data-name="Grupo 112059" xmlns="http://www.w3.org/2000/svg" xmlns:xlink="http://www.w3.org/1999/xlink" width="19.949" height="45.543" viewBox="0 0 19.949 45.543">
  <defs>
    <clipPath id="clip-path">
      <rect id="Rectángulo_65019" data-name="Rectángulo 65019" width="19.949" height="45.543" fill="#2f323c"/>
    </clipPath>
  </defs>
  <g id="Grupo_108039" data-name="Grupo 108039" clip-path="url(#clip-path)">
    <path id="Trazado_392271" data-name="Trazado 392271" d="M14.082,40.274h5.867L15.2,17.369A8.473,8.473,0,0,0,13.532,2.643c.011-.331,0-.756-.01-.893C13.439.877,12.788.6,12.265.372c-.113-.049-.23-.1-.347-.156A2.256,2.256,0,0,0,10.166.141a3.682,3.682,0,0,1-.815.176L8.919.369C8.19.439,5.972.649,6.142,2.449c0,.03.008.107.014.2.011.17.019.3.027.4A8.463,8.463,0,0,0,4.821,16.94L0,40.192H4.768l-.493,3.513.2.146a10.082,10.082,0,0,0,5.236,1.692h.1a6.557,6.557,0,0,0,4.465-1.717l.159-.141-.022-.211c-.116-1.116-.227-2.18-.334-3.2m4.852-.826H13.9C12.422,25.405,11.832,20.5,11.611,18.826a8.432,8.432,0,0,0,2.844-.985ZM2.651,10.463A7.635,7.635,0,0,1,12.713,3.219l.24.09a7.641,7.641,0,0,1,1.554,13.512l-.231.155,0,.011A7.644,7.644,0,0,1,2.651,10.463M13.472,43.344a5.79,5.79,0,0,1-3.62,1.39V18.915a8.36,8.36,0,0,0,.938,0c.236,1.787.908,7.376,2.682,24.43M8.607,18.762c.275.056.553.094.832.122V44.729a9.016,9.016,0,0,1-4.175-1.411l.554-3.952h-.1Zm.4-17.571.443-.053a4.452,4.452,0,0,0,1-.219,1.428,1.428,0,0,1,1.107.04c.13.064.26.12.385.173.547.235.727.341.76.7.009.091.013.31.011.523a8.452,8.452,0,0,0-5.726.318c0-.026,0-.05,0-.071-.007-.107-.012-.194-.016-.228-.043-.455.149-1,2.044-1.181M1.015,39.366,5.552,17.482A8.424,8.424,0,0,0,7.8,18.557L4.884,39.366Z" transform="translate(0 0)" fill="#2f323c"/>
  </g>
</svg>
