<svg xmlns="http://www.w3.org/2000/svg" xmlns:xlink="http://www.w3.org/1999/xlink" width="42" height="42.62" viewBox="0 0 42 42.62">
  <defs>
    <clipPath id="clip-path">
      <rect id="Rectángulo_65019" data-name="Rectángulo 65019" width="18.617" height="42.502" fill="#31abaa"/>
    </clipPath>
  </defs>
  <g id="Grupo_112137" data-name="Grupo 112137" transform="translate(1278.804 -6427.576)">
    <g id="Elipse_1906" data-name="Elipse 1906" transform="translate(-1278.804 6428.196)" fill="#fff" stroke="#31abaa" stroke-width="2">
      <circle cx="21" cy="21" r="21" stroke="none"/>
      <circle cx="21" cy="21" r="20" fill="none"/>
    </g>
    <g id="Grupo_112136" data-name="Grupo 112136" transform="translate(-1265.379 6432.784)">
      <g id="Grupo_108039" data-name="Grupo 108039" transform="translate(-2.281 -5.208)" clip-path="url(#clip-path)">
        <path id="Trazado_392271" data-name="Trazado 392271" d="M9.943,28.436h4.142L10.733,12.264a5.982,5.982,0,0,0-1.178-10.4c.008-.234,0-.534-.007-.631C9.489.619,9.029.421,8.66.263,8.58.229,8.5.193,8.415.152A1.593,1.593,0,0,0,7.178.1,2.6,2.6,0,0,1,6.6.224L6.3.261c-.515.049-2.081.2-1.961,1.468,0,.021.005.076.01.143.008.12.014.211.019.281A5.975,5.975,0,0,0,3.4,11.961L0,28.379H3.366l-.348,2.481.142.1a7.118,7.118,0,0,0,3.7,1.195h.071a4.63,4.63,0,0,0,3.153-1.213l.112-.1-.016-.149c-.082-.788-.16-1.539-.236-2.259m3.426-.583H9.811C8.771,17.938,8.354,14.475,8.2,13.293a5.954,5.954,0,0,0,2.008-.7ZM1.871,7.388a5.391,5.391,0,0,1,7.1-5.115l.169.063a5.4,5.4,0,0,1,1.1,9.54l-.163.109,0,.008a5.4,5.4,0,0,1-8.21-4.606M9.512,30.6a4.088,4.088,0,0,1-2.556.981V13.356a5.9,5.9,0,0,0,.662,0c.167,1.262.641,5.208,1.894,17.249M6.077,13.247c.194.039.39.066.588.086V31.582a6.366,6.366,0,0,1-2.948-1l.391-2.79H4.037ZM6.36.841,6.673.8a3.143,3.143,0,0,0,.7-.155,1.008,1.008,0,0,1,.781.028c.092.045.183.084.272.122.386.166.513.241.537.492.006.064.009.219.008.37a5.968,5.968,0,0,0-4.043.225l0-.05c0-.076-.009-.137-.011-.161-.03-.321.105-.707,1.443-.834M.716,27.8l3.2-15.452a5.948,5.948,0,0,0,1.588.759L3.448,27.8Z" transform="translate(2.266 5.172)" fill="#31abaa" stroke="#31abaa" stroke-width="1"/>
      </g>
    </g>
  </g>
</svg>
