<svg xmlns="http://www.w3.org/2000/svg" xmlns:xlink="http://www.w3.org/1999/xlink" width="43.462" height="43.462" viewBox="0 0 43.462 43.462">
  <defs>
    <clipPath id="clip-path">
      <rect id="Rectángulo_64692" data-name="Rectángulo 64692" width="15.804" height="15.804" transform="translate(0 0)" fill="#fff" stroke="#707070" stroke-width="1"/>
    </clipPath>
  </defs>
  <g id="Grupo_112056" data-name="Grupo 112056" transform="translate(0.197)">
    <g id="Icon_-_person_-_user" data-name="Icon - person - user" transform="translate(9.368 9.219)">
      <g id="Grupo_108120" data-name="Grupo 108120">
        <path id="Trazado_391984" data-name="Trazado 391984" d="M12.461,0A12.461,12.461,0,1,1,0,12.461,12.461,12.461,0,0,1,12.461,0Z" fill="#31abaa"/>
        <g id="Enmascarar_grupo_62127" data-name="Enmascarar grupo 62127" transform="translate(4.264 4.609)" clip-path="url(#clip-path)">
          <path id="Icon_awesome-user-alt" data-name="Icon awesome-user-alt" d="M6.383,7.181A3.591,3.591,0,1,0,2.793,3.591,3.592,3.592,0,0,0,6.383,7.181Zm3.192.8H8.2a4.341,4.341,0,0,1-3.636,0H3.192A3.191,3.191,0,0,0,0,11.171v.4a1.2,1.2,0,0,0,1.2,1.2H11.57a1.2,1.2,0,0,0,1.2-1.2v-.4A3.191,3.191,0,0,0,9.575,7.979Z" transform="translate(1.813 1.468)" fill="#fff"/>
        </g>
      </g>
    </g>
    <g id="Elipse_1905" data-name="Elipse 1905" transform="translate(-0.197)" fill="none" stroke="#31abaa" stroke-width="2">
      <circle cx="21.731" cy="21.731" r="21.731" stroke="none"/>
      <circle cx="21.731" cy="21.731" r="20.731" fill="none"/>
    </g>
  </g>
</svg>
