<svg xmlns="http://www.w3.org/2000/svg" width="64" height="64" viewBox="0 0 64 64">
  <g id="Grupo_108145" data-name="Grupo 108145" transform="translate(0.669 0.136)">
    <path id="Sustracción_16" data-name="Sustracción 16" d="M25.507,51A25.5,25.5,0,1,1,51,25.505,25.529,25.529,0,0,1,25.507,51ZM16.4,10.383a.555.555,0,0,0-.3.084.732.732,0,0,0-.327.7V39.832a.756.756,0,0,0,.327.7.541.541,0,0,0,.293.084.987.987,0,0,0,.468-.143l25.87-14.372c.3-.185.444-.373.444-.607a.711.711,0,0,0-.444-.6L16.867,10.526A.92.92,0,0,0,16.4,10.383Z" transform="translate(5.332 5.864)" fill="#fff"/>
    <g id="Grupo_10945" data-name="Grupo 10945" transform="translate(-0.309 0.222)">
      <g id="Elipse_121" data-name="Elipse 121" transform="translate(-0.36 -0.359)" fill="none" stroke="#fff" stroke-width="2">
        <circle cx="32" cy="32" r="32" stroke="none"/>
        <circle cx="32" cy="32" r="31" fill="none"/>
      </g>
    </g>
  </g>
</svg>
