<?xml version="1.0" encoding="UTF-8"?><svg id="a" xmlns="http://www.w3.org/2000/svg" viewBox="0 0 33.9 40"><defs><style>.b{fill:#fff;stroke-width:0px;}</style></defs><path class="b" d="m13.28,0c.36,0,.73,0,1.09,0,.04.02.09.06.13.07,1.93.4,3.24,1.87,3.32,3.84.06,1.38.02,2.76.02,4.14,0,.15,0,.3,0,.47,2.15-.52,3.76.15,4.89,1.96,2.27-.95,4.6.05,5.54,2.18.82-.31,1.65-.41,2.51-.19,1.85.47,3.09,2.08,3.1,4.05.01,2.69-.02,5.39.01,8.08.02,1.48-.15,2.93-.44,4.38-.67,3.33-1.65,6.57-2.64,9.82-.18.61-.54,1.02-1.15,1.21H11.87c-.58-.2-.9-.65-1.15-1.19-1.19-2.59-2.52-5.1-4.11-7.47-1.09-1.63-2.17-3.28-3.2-4.94-.97-1.57-1.93-3.15-2.82-4.76-.53-.96-.74-2.04-.48-3.13.57-2.37,3.4-3.6,5.57-2.49.71.36,1.23.9,1.73,1.48.75.87,1.52,1.74,2.35,2.69v-.52c0-3.62,0-7.24,0-10.85,0-1.55,0-3.1,0-4.65,0-1.31.51-2.39,1.52-3.24.58-.49,1.27-.73,1.99-.92Zm-.78,13.95c0,3.22,0,6.43-.01,9.65,0,.36-.1.77-.3,1.05-.52.74-1.52.7-2.18-.05-1.6-1.82-3.19-3.64-4.78-5.47-.14-.16-.27-.32-.42-.46-.43-.39-1.11-.45-1.59-.13-.43.28-.58.74-.37,1.35.13.38.28.76.49,1.1.89,1.5,1.79,2.99,2.72,4.46,2.42,3.79,5.04,7.46,6.88,11.6.05.11.28.21.42.21,4.92.01,9.84,0,14.76.01.26,0,.35-.08.42-.33.6-2.18,1.23-4.35,1.8-6.54.41-1.57.8-3.16.81-4.8.03-3.01.01-6.01,0-9.02,0-.19-.02-.39-.07-.58-.16-.57-.71-.96-1.29-.93-.59.03-1.1.46-1.2,1.04-.04.2-.04.41-.04.62,0,1.21.01,2.42-.01,3.63-.02.93-.79,1.52-1.66,1.33-.66-.14-1.06-.71-1.06-1.53,0-1.89,0-3.78,0-5.66,0-.18,0-.37-.02-.55-.06-.53-.47-.97-.98-1.09-.84-.2-1.59.42-1.6,1.34-.01,1.43,0,2.86,0,4.3,0,.71-.41,1.25-1.02,1.4-.9.22-1.7-.41-1.7-1.37-.01-2,0-4.01,0-6.01,0-.87-.52-1.46-1.28-1.47-.78-.01-1.32.57-1.33,1.46,0,1.31,0,2.63,0,3.94,0,.18,0,.37-.03.55-.09.65-.62,1.13-1.27,1.17-.6.04-1.2-.37-1.36-.96-.06-.23-.07-.49-.07-.73,0-4.01,0-8.02,0-12.03,0-.18,0-.37-.03-.55-.09-.69-.62-1.18-1.28-1.18-.65,0-1.21.5-1.3,1.17-.02.15-.02.31-.02.47,0,3.19,0,6.38,0,9.57Z"/></svg>